<svg width="44" height="34" xmlns="http://www.w3.org/2000/svg"><g fill="#3498DB" fill-rule="evenodd"><path d="M39.942 5.737h-7.166l-4.167-4.176c-.005-.005-.01-.008-.013-.013l-.008-.007a3.45 3.45 0 00-2.436-1H17.49a3.447 3.447 0 00-2.538 1.119l-.003-.01-4.08 4.089H3.554A3.465 3.465 0 00.09 9.205v20.792a3.466 3.466 0 003.465 3.466H39.94a3.466 3.466 0 003.466-3.466V9.205a3.466 3.466 0 00-3.466-3.466l.002-.002zm1.734 24.258c0 .954-.779 1.732-1.734 1.732H3.556a1.735 1.735 0 01-1.732-1.732V9.203c0-.955.779-1.732 1.732-1.732h8.031l2.607-2.611.042.126 1.989-2.151a1.712 1.712 0 011.266-.564h8.663c.458 0 .89.177 1.23.513l4.673 4.685h7.885c.955 0 1.734.777 1.734 1.733v20.793z"/><path d="M21.75 7.471c-6.22 0-11.263 5.04-11.263 11.261 0 6.22 5.042 11.265 11.263 11.265 6.22 0 11.263-5.044 11.263-11.265 0-6.22-5.042-11.261-11.263-11.261zm0 20.792c-5.255 0-9.529-4.276-9.529-9.53 0-5.256 4.275-9.528 9.529-9.528s9.529 4.274 9.529 9.527c0 5.255-4.275 9.53-9.529 9.53z"/><path d="M21.75 10.936a7.798 7.798 0 10.002 15.591 7.798 7.798 0 00-.002-15.591zm0 13.86a6.072 6.072 0 01-6.064-6.065 6.07 6.07 0 016.064-6.063 6.07 6.07 0 016.065 6.063 6.072 6.072 0 01-6.065 6.066z"/></g></svg>