<svg width="44" height="36" xmlns="http://www.w3.org/2000/svg"><g fill="#3498DB" fill-rule="evenodd"><path d="M.75.1v35.798h42.617V.1H.75zm6.819 34.095H2.455v-6.819h5.114v6.819zm0-8.523H2.455v-6.819h5.114v6.819zm0-8.524H2.455V10.33h5.114v6.818zm0-8.523H2.455V1.807h5.114v6.818zm27.274 2.84v22.73H9.273V1.807h25.57v9.659zm6.82 22.73h-5.114v-6.819h5.114v6.819zm0-8.523h-5.114v-6.819h5.114v6.819zm0-8.524h-5.114V10.33h5.114v6.818zm0-8.523h-5.114V1.807h5.114v6.818z"/><path d="M17.796 11.11v13.778L29.73 18l-11.933-6.89zm1.705 2.953L26.319 18l-6.818 3.937v-7.874z"/></g></svg>