<svg width="49" height="50" xmlns="http://www.w3.org/2000/svg"><path d="M48.753 8.428L41.845 1.52l-1.69 1.692L37.789.848a.867.867 0 00-1.225 0L22.527 14.886a.867.867 0 001.225 1.225L37.176 2.686l1.754 1.751L9.16 34.204l2.007 2.007a6.062 6.062 0 00-6.98 1.149c-.123.12-.24.25-.352.386a4.512 4.512 0 00-.159.2 3.551 3.551 0 00-.174.238 6.214 6.214 0 00-.123.175C.86 42.147.747 49.391.747 49.391s.263.013.722.013c2.081 0 8.14-.284 11.311-3.455a6.074 6.074 0 001.148-6.982l2.143 2.143L48.754 8.427l-.001.001zm-37.2 36.298c-1.933 1.934-5.326 2.6-7.746 2.829l3.944-3.944-1.225-1.225-3.778 3.778c.307-2.31.92-5.112 2.08-6.853l.048-.07.042-.06c.038-.053.077-.11.143-.195.03-.037.057-.076.11-.136a4.314 4.314 0 013.312-1.537c1.16 0 2.25.451 3.07 1.272a4.35 4.35 0 010 6.14zM46.304 8.428L36.028 18.705l-4.46-4.458L41.846 3.971l4.459 4.457zm-15.96 7.043l4.458 4.457L16.07 38.661l-4.459-4.457 18.733-18.733z" fill="#3498DB" fill-rule="evenodd"/></svg>