<svg width="53" height="34" xmlns="http://www.w3.org/2000/svg"><g fill="#3498DB" fill-rule="evenodd"><path d="M.34 11.013v12.129h5.2v10.396h1.73V23.142H20.6l12.655 10.24V.462L20.52 11.012H.34zm1.735 10.395v-8.663h6.93v8.663h-6.93zm19.55-9.061l9.896-8.2v25.604l-10.309-8.342H10.736v-8.662h10.406l.482-.399.001-.001zM45.246 1.99L44 3.234c4.054 3.174 6.675 8.101 6.675 13.637 0 5.685-2.764 10.724-7.005 13.884l1.254 1.255c4.549-3.482 7.485-8.967 7.485-15.139 0-6.022-2.798-11.39-7.161-14.883h-.002z"/><path d="M39.679 7.575l-1.26 1.26c2.675 1.69 4.461 4.663 4.461 8.055 0 3.54-1.945 6.63-4.82 8.272l1.263 1.263c3.174-1.992 5.291-5.512 5.291-9.535 0-3.875-1.956-7.289-4.933-9.315h-.002z"/></g></svg>