<svg width="48" height="47" xmlns="http://www.w3.org/2000/svg"><path d="M43.417 13.787l-1.536 1.536A18.318 18.318 0 0029.85 10.8c-2.987 0-5.973.768-8.533 2.133l6.485-6.485a3.08 3.08 0 001.707.512c.853 0 1.708-.34 2.39-1.024a3.4 3.4 0 000-4.864C31.213.389 30.36.048 29.507.048c-.852 0-1.707.34-2.388 1.024-1.11 1.195-1.28 2.9-.512 4.18l-8.192 8.193-1.536-1.536-4.181 4.18 1.536 1.537-8.363 8.363a3.08 3.08 0 00-1.708-.512c-.852 0-1.707.34-2.388 1.024a3.4 3.4 0 000 4.864c.683.597 1.536.939 2.388.939.853 0 1.708-.34 2.39-1.024 1.108-1.109 1.28-2.816.511-4.18l6.485-6.486c-3.413 6.572-2.645 14.764 2.389 20.565L14.403 42.8l4.267 4.18 4.18-4.18-4.18-4.18-1.451 1.45c-4.949-5.803-5.205-14.164-1.024-20.308l.683.683 4.267-4.181-.768-.683c2.731-1.963 6.06-2.987 9.472-2.987 4.011 0 7.765 1.45 10.837 4.01l-1.536 1.452 4.267 4.18 4.181-4.18-4.18-4.267v-.002zM20.462 42.8l-1.792 1.792-1.792-1.792 1.792-1.792 1.792 1.792zm7.851-40.448a1.69 1.69 0 011.195-.512c.428 0 .853.171 1.196.512.683.683.683 1.707 0 2.389a1.69 1.69 0 01-1.196.512 1.69 1.69 0 01-1.195-.512c-.683-.597-.683-1.707 0-2.389zM5.358 30.085c-.34.34-.768.512-1.195.512a1.69 1.69 0 01-1.195-.512c-.341-.256-.512-.683-.512-1.195 0-.428.17-.853.512-1.196a1.68 1.68 0 011.195-.512c.427 0 .853.172 1.195.512.683.684.683 1.792 0 2.39zm11.435-12.032l-1.792-1.792 1.792-1.792 1.792 1.792-1.792 1.792zm26.624 1.792l-1.792-1.792 1.792-1.792 1.792 1.792-1.792 1.792z" fill="#3498DB" fill-rule="evenodd"/></svg>